# xmcd
#
# Track frame offsets:
#	150
#	13843
#	31985
#	50692
#	66666
#	90370
#	114146
#	130585
#	149960
#	167781
#	184023
#	205923
#
# Disc length: 3042 seconds
#
# Revision: 2
# Processed by: cddbd v1.5.1PL0 Copyright (c) Steve Scherf et al.
# Submitted via: audiograbber 1.82.02
#
DISCID=ac0be00c
DTITLE=Ted Sandstedt - Hjärtats sånger
DYEAR=1999
DGENRE=Christian Country
TTITLE0=Ett liv jag nu äger
TTITLE1=Är det en dröm
TTITLE2=I tidens aftonskymning
TTITLE3=Var ska jag gå
TTITLE4=Vilken vän vi ha i Jesus
TTITLE5=På löftenas vagnar
TTITLE6=Det finns kraft
TTITLE7=Blott en dag
TTITLE8=Bortom gyllne sol
TTITLE9=Tro på mig
TTITLE10=Ljuvligt och kärleksfullt
TTITLE11=O store Gud
EXTD=EDEN-CD-100\nSweden
EXTT0=
EXTT1=
EXTT2=
EXTT3=
EXTT4=
EXTT5=
EXTT6=
EXTT7=
EXTT8=
EXTT9=
EXTT10=
EXTT11=
PLAYORDER=
